<?xml version="1.0" encoding="utf-8"?>
<!-- Generator: Adobe Illustrator 18.1.1, SVG Export Plug-In . SVG Version: 6.00 Build 0)  -->
<svg version="1.1" id="Layer_1" xmlns="http://www.w3.org/2000/svg" xmlns:xlink="http://www.w3.org/1999/xlink" x="0px" y="0px"
	 viewBox="84.2 0 438.2 796.7" enable-background="new 84.2 0 438.2 796.7" xml:space="preserve">
<rect x="-1003.4" y="15.8" fill="#414042" width="549.1" height="913.4"/>
<line opacity="0.5" fill="none" stroke="#FFFFFF" stroke-width="4" stroke-miterlimit="10" x1="84.2" y1="5.3" x2="84.2" y2="274.6"/>
<line opacity="0.5" fill="none" stroke="#FFFFFF" stroke-width="4" stroke-miterlimit="10" x1="306" y1="132" x2="306" y2="401.3"/>
<line opacity="0.5" fill="none" stroke="#FFFFFF" stroke-width="4" stroke-miterlimit="10" x1="522.5" y1="5.3" x2="306" y2="132"/>
<line opacity="0.5" fill="none" stroke="#FFFFFF" stroke-width="4" stroke-miterlimit="10" x1="84.2" y1="5.3" x2="306" y2="132"/>
<line opacity="0.5" fill="none" stroke="#FFFFFF" stroke-width="4" stroke-miterlimit="10" x1="522.5" y1="5.3" x2="522.5" y2="274.6"/>
<line opacity="0.5" fill="none" stroke="#FFFFFF" stroke-width="4" stroke-miterlimit="10" x1="89.5" y1="5.3" x2="522.5" y2="5.3"/>
<line opacity="0.5" fill="none" stroke="#FFFFFF" stroke-width="4" stroke-miterlimit="10" x1="57.8" y1="396" x2="548.9" y2="396"/>
<line opacity="0.5" fill="none" stroke="#FFFFFF" stroke-width="4" stroke-miterlimit="10" x1="84.2" y1="792" x2="522.5" y2="5.3"/>
<line opacity="0.5" fill="none" stroke="#FFFFFF" stroke-width="4" stroke-miterlimit="10" x1="522.5" y1="792" x2="522.5" y2="522.7"/>
<line opacity="0.5" fill="none" stroke="#FFFFFF" stroke-width="4" stroke-miterlimit="10" x1="306" y1="660" x2="306" y2="390.7"/>
<line opacity="0.5" fill="none" stroke="#FFFFFF" stroke-width="4" stroke-miterlimit="10" x1="84.2" y1="792" x2="306" y2="660"/>
<line opacity="0.5" fill="none" stroke="#FFFFFF" stroke-width="4" stroke-miterlimit="10" x1="522.5" y1="792" x2="306" y2="660"/>
<line opacity="0.5" fill="none" stroke="#FFFFFF" stroke-width="4" stroke-miterlimit="10" x1="527.8" y1="528" x2="84.2" y2="269.3"/>
<line opacity="0.5" fill="none" stroke="#FFFFFF" stroke-width="4" stroke-miterlimit="10" x1="84.2" y1="792" x2="84.2" y2="522.7"/>
<line opacity="0.5" fill="none" stroke="#FFFFFF" stroke-width="4" stroke-miterlimit="10" x1="522.5" y1="792" x2="89.5" y2="792"/>
<line opacity="0.5" fill="none" stroke="#FFFFFF" stroke-width="4" stroke-miterlimit="10" x1="84.2" y1="5.3" x2="522.5" y2="792"/>
<line fill="none" stroke="#FFDA00" stroke-width="9.209515e-002" stroke-miterlimit="10" x1="696.7" y1="0" x2="696.7" y2="269.3"/>
<line fill="none" stroke="#FFDA00" stroke-width="9.209515e-002" stroke-miterlimit="10" x1="918.5" y1="126.7" x2="918.5" y2="396"/>
<line fill="none" stroke="#FFDA00" stroke-width="8.924273e-002" stroke-miterlimit="10" x1="1135" y1="0" x2="918.5" y2="126.7"/>
<line fill="none" stroke="#FFDA00" stroke-width="8.924273e-002" stroke-miterlimit="10" x1="696.7" y1="0" x2="913.2" y2="126.7"/>
<line fill="none" stroke="#FFDA00" stroke-width="8.924273e-002" stroke-miterlimit="10" x1="1135" y1="264" x2="918.5" y2="396"/>
<line fill="none" stroke="#FFDA00" stroke-width="8.924273e-002" stroke-miterlimit="10" x1="696.7" y1="264" x2="913.2" y2="396"/>
<line fill="none" stroke="#FFDA00" stroke-width="9.209515e-002" stroke-miterlimit="10" x1="1135" y1="0" x2="1135" y2="269.3"/>
<line fill="none" stroke="#FFDA00" stroke-width="8.924273e-002" stroke-miterlimit="10" x1="696.7" y1="396" x2="1129.7" y2="396"/>
<line fill="none" stroke="#FFDA00" stroke-width="8.924273e-002" stroke-miterlimit="10" x1="918.5" y1="396" x2="1135" y2="0"/>
<line fill="none" stroke="#FFDA00" stroke-width="8.924273e-002" stroke-miterlimit="10" x1="913.2" y1="396" x2="696.7" y2="0"/>
<line fill="none" stroke="#FFDA00" stroke-width="9.209515e-002" stroke-miterlimit="10" x1="1135" y1="786.7" x2="1135" y2="517.4"/>
<line fill="none" stroke="#FFDA00" stroke-width="9.209515e-002" stroke-miterlimit="10" x1="913.2" y1="660" x2="913.2" y2="390.7"/>
<line fill="none" stroke="#FFDA00" stroke-width="8.924273e-002" stroke-miterlimit="10" x1="696.7" y1="786.7" x2="913.2" y2="660"/>
<line fill="none" stroke="#FFDA00" stroke-width="8.924273e-002" stroke-miterlimit="10" x1="1135" y1="786.7" x2="918.5" y2="660"/>
<line fill="none" stroke="#FFDA00" stroke-width="8.924273e-002" stroke-miterlimit="10" x1="696.7" y1="522.7" x2="913.2" y2="390.7"/>
<line fill="none" stroke="#FFDA00" stroke-width="8.924273e-002" stroke-miterlimit="10" x1="1135" y1="522.7" x2="918.5" y2="390.7"/>
<line fill="none" stroke="#FFDA00" stroke-width="9.209515e-002" stroke-miterlimit="10" x1="696.7" y1="786.7" x2="696.7" y2="517.4"/>
<line fill="none" stroke="#FFDA00" stroke-width="8.924273e-002" stroke-miterlimit="10" x1="1135" y1="786.7" x2="696.7" y2="786.7"/>
<g>
	
		<line fill="none" stroke="#FFDA00" stroke-width="8.924273e-002" stroke-miterlimit="10" x1="918.5" y1="390.7" x2="1135" y2="786.7"/>
	
		<line fill="none" stroke="#FFDA00" stroke-width="8.924273e-002" stroke-miterlimit="10" x1="913.2" y1="390.7" x2="696.7" y2="786.7"/>
</g>
<line opacity="0.5" fill="none" stroke="#FFFFFF" stroke-width="4" stroke-miterlimit="10" x1="84.2" y1="528" x2="527.8" y2="269.3"/>
</svg>
