<?xml version="1.0" encoding="utf-8"?>
<!-- Generator: Adobe Illustrator 18.1.1, SVG Export Plug-In . SVG Version: 6.00 Build 0)  -->
<svg version="1.1" id="Layer_1" xmlns="http://www.w3.org/2000/svg" xmlns:xlink="http://www.w3.org/1999/xlink" x="0px" y="0px"
	 viewBox="0 0 612 792" enable-background="new 0 0 612 792" xml:space="preserve">
<rect x="106" y="195.6" transform="matrix(0.7071 -0.7071 0.7071 0.7071 -190.4953 333.2112)" opacity="0.3" fill="none" stroke="#EFEFEF" stroke-width="20" stroke-miterlimit="10" enable-background="new    " width="401.9" height="401.9"/>
<g>
	<path fill="none" stroke="#FFFFFF" stroke-width="20" stroke-linecap="round" stroke-linejoin="round" stroke-miterlimit="10" d="
		M18.5,652.6L114.1,395L20.4,140.5h195.2l91.6,245.7L398,141.9h196.9l-94.5,253.8l95.1,253.2H398.6L307.8,404l-90.5,243.6
		L18.5,652.6z M117.9,396.4l-0.3,0.6L27.8,638.4L303.5,397v-0.6H117.9z M302.7,390.8L29.5,151.5l48.3,133.1l39.5,106.5h185.3
		L302.7,390.8L302.7,390.8z M214,145.8H30l273,239L214,145.8z M304.6,402L25.2,646.4l190.2-4L304.6,402z M586.1,643.5L311.3,402.8
		l89.5,240.7H586.1z M400.1,147.2l-88.7,238.5l272.2-238.5L400.1,147.2L400.1,147.2z M311.7,391.7v1.8h186.4l-0.6-0.6l0,0
		l88.1-241.5L311.7,391.7z M497.7,399.1H314.2l272.5,238.7L497.7,399.1z"/>
</g>
</svg>
